<svg width="132" height="37" viewBox="0 0 132 37" fill="none" xmlns="http://www.w3.org/2000/svg">
<path d="M28.0781 27.25C26.9635 27.25 25.9167 27.0625 24.9375 26.6875C24.7083 25.5417 24.6354 24.3385 24.7188 23.0781H25.9688L27.2656 26.1094L26.125 25.3281C26.8229 25.5885 27.474 25.7188 28.0781 25.7188C29.4844 25.7188 30.1875 24.8646 30.1875 23.1562L32.8125 23.4062C32.8125 24.5729 32.3854 25.5052 31.5312 26.2031C30.6771 26.901 29.526 27.25 28.0781 27.25ZM32.8125 23.4062L30.1875 23.1562V11.75H32.8125V23.4062ZM34.4062 11.5312L34.3281 12.5312C33.849 12.7604 33.2448 12.9635 32.5156 13.1406L32.8125 11.9688V14.1562H30.1875V11.9688L30.5312 13.0156L27.8438 12.5625L27.9219 11.5312H34.4062ZM42.3438 25.3125C42.3438 24.4479 42.3542 23.5677 42.375 22.6719C42.3958 21.7656 42.4062 20.9167 42.4062 20.125V18.75C42.4062 17.2708 41.6875 16.5312 40.25 16.5312C39.3021 16.5312 38.4271 16.8333 37.625 17.4375L36.625 18.7031C36.5938 17.8073 36.6458 16.9896 36.7812 16.25C38.1771 15.4688 39.651 15.0781 41.2031 15.0781C43.651 15.0781 44.875 16.2448 44.875 18.5781C44.875 18.8698 44.8698 19.3073 44.8594 19.8906C44.849 20.4635 44.8385 21.0833 44.8281 21.75C44.8177 22.4062 44.8073 23.026 44.7969 23.6094C44.7865 24.1823 44.7812 24.625 44.7812 24.9375L42.3438 25.3125ZM36.625 18.7031L36.8438 16.9219L39.2344 16.0156L37.9531 18.7031H36.625ZM39.1406 27.2344C38.151 27.2344 37.3646 26.9531 36.7812 26.3906C36.1979 25.8177 35.9062 25.0521 35.9062 24.0938C35.9062 22.0208 37.4115 20.6667 40.4219 20.0312L42.9688 19.5L43.125 20.8438L40.8906 21.125C40.0365 21.2292 39.4167 21.4635 39.0312 21.8281C38.6458 22.1823 38.4531 22.7135 38.4531 23.4219C38.4531 24.7969 39.0469 25.4844 40.2344 25.4844C41.0677 25.4844 42.0365 25.0938 43.1406 24.3125L43.4219 24.875C42.1615 26.4479 40.7344 27.2344 39.1406 27.2344ZM42.9688 27.0469L42.4375 25.0156L44.7812 24.3438V26.0469L44.4375 25.4219L46.3438 25.9688L46.2656 26.875C45.4115 27.0104 44.3125 27.0677 42.9688 27.0469ZM56.6875 26.9062V19.0312C56.6875 17.6042 56 16.8906 54.625 16.8906C53.5417 16.8906 52.4479 17.3281 51.3438 18.2031L51.0312 17.4219C51.6667 16.6719 52.3958 16.0938 53.2188 15.6875C54.0417 15.2812 54.9062 15.0781 55.8125 15.0781C56.8958 15.0781 57.7292 15.3802 58.3125 15.9844C58.8958 16.5781 59.1875 17.4323 59.1875 18.5469V26.9062H56.6875ZM49.625 26.9062V16.4688L52.125 17.125V26.9062H49.625ZM48.0312 27L48.1094 26.0625C48.4115 25.9167 48.7135 25.7969 49.0156 25.7031C49.3177 25.6094 49.6198 25.526 49.9219 25.4531L49.625 26.6094V24.4688H52.125V26.6094L51.875 25.5781L53.7812 26.0312L53.7031 27H48.0312ZM55.375 27L55.4531 26C55.6719 25.8854 55.9062 25.7865 56.1562 25.7031C56.4062 25.6094 56.6823 25.526 56.9844 25.4531L56.6875 26.6094V24.4688H59.1875V26.6094L58.9375 25.5781L60.8438 26.0312L60.7656 27H55.375ZM49.625 19.0469V17.0469L50 17.7344L47.8438 16.7031L47.9062 16.0469C48.3646 15.8385 48.8958 15.6615 49.5 15.5156C50.1042 15.3698 50.75 15.2656 51.4375 15.2031L52.0312 17.6875L49.625 19.0469ZM64.0938 26.9062V16.4531L66.5938 16.1562V26.9062H64.0938ZM64.0938 19.0469V17.0469L64.4688 17.7344L62.3125 16.7031L62.375 16.0469C62.8333 15.8385 63.3646 15.6615 63.9688 15.5156C64.5729 15.3698 65.2188 15.2656 65.9062 15.2031H66.5938V17.6875L64.0938 19.0469ZM62.4062 27L62.4844 26.0625C62.7552 25.9375 63.0469 25.8281 63.3594 25.7344C63.6823 25.6302 64.0312 25.5365 64.4062 25.4531L64.0938 26.6094V24.4688H66.5938V26.6094L66.3281 25.5781L68.3438 26.0312L68.2656 27H62.4062ZM65.1094 13.1875C64.599 13.1875 64.1927 13.0417 63.8906 12.75C63.599 12.4583 63.4531 12.0625 63.4531 11.5625C63.4531 11.0625 63.599 10.6667 63.8906 10.375C64.1927 10.0833 64.599 9.9375 65.1094 9.9375C65.6198 9.9375 66.0208 10.0833 66.3125 10.375C66.6146 10.6667 66.7656 11.0625 66.7656 11.5625C66.7656 12.0625 66.6146 12.4583 66.3125 12.75C66.0208 13.0417 65.6198 13.1875 65.1094 13.1875ZM80.125 27.25C78.25 27.25 76.7292 26.8125 75.5625 25.9375C75.3438 24.4271 75.2917 23.1406 75.4062 22.0781H76.5469L78.2344 26L77.0156 24.8281C78.1406 25.4635 79.2969 25.7812 80.4844 25.7812C81.4115 25.7812 82.1198 25.5729 82.6094 25.1562C83.1094 24.7396 83.3594 24.151 83.3594 23.3906C83.3594 22.7552 83.1667 22.2396 82.7812 21.8438C82.3958 21.4375 81.7708 21.1042 80.9062 20.8438L79.375 20.3594C76.7396 19.526 75.4219 18.0365 75.4219 15.8906C75.4219 14.4844 75.9115 13.3646 76.8906 12.5312C77.8698 11.6979 79.1927 11.2812 80.8594 11.2812C82.349 11.2812 83.6927 11.5938 84.8906 12.2188C85.0781 13.4583 85.1302 14.5885 85.0469 15.6094H83.8438L82.4688 12.4219L83.9688 13.7031C82.75 13.0677 81.5938 12.75 80.5 12.75C78.8021 12.75 77.9531 13.4948 77.9531 14.9844C77.9531 15.6406 78.1562 16.1771 78.5625 16.5938C78.9792 17.0104 79.6458 17.3646 80.5625 17.6562L82.0938 18.1406C84.6667 18.9531 85.9531 20.4167 85.9531 22.5312C85.9531 23.9792 85.4271 25.1302 84.375 25.9844C83.3229 26.8281 81.9062 27.25 80.125 27.25ZM92.3906 27.1875C90.2865 27.1875 89.2344 26.1198 89.2344 23.9844V16.4531L89.375 15.3438L89.9531 12.375H91.7344V23.5156C91.7344 24.2031 91.8594 24.7031 92.1094 25.0156C92.3698 25.3177 92.7865 25.4688 93.3594 25.4688C93.8281 25.4688 94.4271 25.3802 95.1562 25.2031L95.0625 26.5469C94.2917 26.974 93.401 27.1875 92.3906 27.1875ZM87.2656 16.8438L87.375 15.5938C87.9792 15.4479 88.6458 15.3646 89.375 15.3438H95.0938L94.9688 16.8438H87.2656ZM102 27.2812C100.271 27.2812 98.8958 26.7344 97.875 25.6406C96.8542 24.5365 96.3438 23.0573 96.3438 21.2031C96.3438 19.3281 96.8594 17.8385 97.8906 16.7344C98.9219 15.6198 100.307 15.0625 102.047 15.0625C103.776 15.0625 105.146 15.6146 106.156 16.7188C107.177 17.8125 107.688 19.2917 107.688 21.1562C107.688 23.0312 107.172 24.5208 106.141 25.625C105.12 26.7292 103.74 27.2812 102 27.2812ZM102.266 25.8125C104.047 25.8125 104.938 24.401 104.938 21.5781C104.938 19.9531 104.661 18.7083 104.109 17.8438C103.568 16.9688 102.786 16.5312 101.766 16.5312C99.9844 16.5312 99.0938 17.9427 99.0938 20.7656C99.0938 22.3906 99.3698 23.6406 99.9219 24.5156C100.474 25.3802 101.255 25.8125 102.266 25.8125ZM111.188 26.9062V16.9062L113.688 17.7031V26.9062H111.188ZM109.594 27L109.672 26.0625C109.974 25.9167 110.276 25.7969 110.578 25.7031C110.88 25.6094 111.182 25.526 111.484 25.4531L111.188 26.5938V24.4688H113.688V26.5938L113.438 25.5938L115.969 26.0312L115.891 27H109.594ZM113.188 19.1875L112.875 18.5625C113.427 17.3646 114.016 16.5052 114.641 15.9844C115.266 15.4531 115.99 15.1875 116.812 15.1875C116.948 15.1875 117.089 15.1927 117.234 15.2031C117.391 15.2135 117.526 15.2396 117.641 15.2812L117.469 17.4375C117.302 17.4167 117.12 17.401 116.922 17.3906C116.724 17.3698 116.547 17.3594 116.391 17.3594C115.693 17.3594 115.089 17.5052 114.578 17.7969C114.078 18.0781 113.615 18.5417 113.188 19.1875ZM111.188 19.0469V17.0469L111.562 17.7344L109.406 16.7031L109.469 16.0469C109.927 15.8385 110.458 15.6615 111.062 15.5156C111.667 15.3698 112.312 15.2656 113 15.2031L113.594 17.6875L111.188 19.0469ZM124.734 27.25C122.849 27.25 121.396 26.7396 120.375 25.7188C119.354 24.6979 118.844 23.2396 118.844 21.3438C118.844 19.4167 119.344 17.8906 120.344 16.7656C121.344 15.6302 122.693 15.0625 124.391 15.0625C125.911 15.0625 127.083 15.5417 127.906 16.5C128.729 17.4479 129.141 18.8125 129.141 20.5938C129.141 20.75 129.135 20.9062 129.125 21.0625C129.115 21.2188 129.099 21.3698 129.078 21.5156L126.453 21.0156C126.453 19.4219 126.26 18.2708 125.875 17.5625C125.5 16.8542 124.885 16.5 124.031 16.5C122.365 16.5 121.531 17.8177 121.531 20.4531C121.531 23.776 122.859 25.4375 125.516 25.4375C126.557 25.4375 127.646 25.224 128.781 24.7969L128.672 26.2656C128.182 26.5781 127.594 26.8229 126.906 27C126.229 27.1667 125.505 27.25 124.734 27.25ZM119.859 21.5156V20.2344H128.828L129.078 21.5156H119.859Z" fill="black"/>
<path d="M21.6816 0C2.55352 1.85806 -0.67337 24.7742 0.104194 36C5.54715 35.8065 17.4828 33.329 21.6816 24.9677C25.8804 16.6065 23.4311 4.83871 21.6816 0Z" fill="#00575D"/>
<path d="M21.6816 1.16129C10.9512 8.12903 17.2106 14.129 21.6816 16.2581C15.0723 14.7097 2.78677 13.3548 6.51908 20.3226C10.2514 27.2903 -11.5593 48.1935 11.1845 24.9677" stroke="white"/>
</svg>
