<svg width="90" height="23" viewBox="0 0 90 23" fill="none" xmlns="http://www.w3.org/2000/svg">
<path d="M22.5488 17.1562C21.8522 17.1562 21.1979 17.0391 20.5859 16.8047C20.4427 16.0885 20.3971 15.3366 20.4492 14.5488H21.2305L22.041 16.4434L21.3281 15.9551C21.7643 16.1178 22.1712 16.1992 22.5488 16.1992C23.4277 16.1992 23.8672 15.6654 23.8672 14.5977L25.5078 14.7539C25.5078 15.4831 25.2409 16.0658 24.707 16.502C24.1732 16.9382 23.4538 17.1562 22.5488 17.1562ZM25.5078 14.7539L23.8672 14.5977V7.46875H25.5078V14.7539ZM26.5039 7.33203L26.4551 7.95703C26.1556 8.10026 25.778 8.22721 25.3223 8.33789L25.5078 7.60547V8.97266H23.8672V7.60547L24.082 8.25977L22.4023 7.97656L22.4512 7.33203H26.5039ZM31.4648 15.9453C31.4648 15.4049 31.4714 14.8548 31.4844 14.2949C31.4974 13.7285 31.5039 13.1979 31.5039 12.7031V11.8438C31.5039 10.9193 31.0547 10.457 30.1562 10.457C29.5638 10.457 29.0169 10.6458 28.5156 11.0234L27.8906 11.8145C27.8711 11.2546 27.9036 10.7435 27.9883 10.2812C28.8607 9.79297 29.7819 9.54883 30.752 9.54883C32.2819 9.54883 33.0469 10.278 33.0469 11.7363C33.0469 11.9186 33.0436 12.1921 33.0371 12.5566C33.0306 12.9147 33.0241 13.3021 33.0176 13.7188C33.0111 14.1289 33.0046 14.5163 32.998 14.8809C32.9915 15.2389 32.9883 15.5156 32.9883 15.7109L31.4648 15.9453ZM27.8906 11.8145L28.0273 10.7012L29.5215 10.1348L28.7207 11.8145H27.8906ZM29.4629 17.1465C28.8444 17.1465 28.3529 16.9707 27.9883 16.6191C27.6237 16.2611 27.4414 15.7826 27.4414 15.1836C27.4414 13.888 28.3822 13.0417 30.2637 12.6445L31.8555 12.3125L31.9531 13.1523L30.5566 13.3281C30.0228 13.3932 29.6354 13.5397 29.3945 13.7676C29.1536 13.9889 29.0332 14.321 29.0332 14.7637C29.0332 15.623 29.4043 16.0527 30.1465 16.0527C30.6673 16.0527 31.2728 15.8086 31.9629 15.3203L32.1387 15.6719C31.3509 16.6549 30.459 17.1465 29.4629 17.1465ZM31.8555 17.0293L31.5234 15.7598L32.9883 15.3398V16.4043L32.7734 16.0137L33.9648 16.3555L33.916 16.9219C33.3822 17.0065 32.6953 17.0423 31.8555 17.0293ZM40.4297 16.9414V12.0195C40.4297 11.1276 40 10.6816 39.1406 10.6816C38.4635 10.6816 37.7799 10.9551 37.0898 11.502L36.8945 11.0137C37.2917 10.5449 37.7474 10.1836 38.2617 9.92969C38.776 9.67578 39.3164 9.54883 39.8828 9.54883C40.5599 9.54883 41.0807 9.73763 41.4453 10.1152C41.8099 10.4863 41.9922 11.0202 41.9922 11.7168V16.9414H40.4297ZM36.0156 16.9414V10.418L37.5781 10.8281V16.9414H36.0156ZM35.0195 17L35.0684 16.4141C35.2572 16.3229 35.446 16.248 35.6348 16.1895C35.8236 16.1309 36.0124 16.0788 36.2012 16.0332L36.0156 16.7559V15.418H37.5781V16.7559L37.4219 16.1113L38.6133 16.3945L38.5645 17H35.0195ZM39.6094 17L39.6582 16.375C39.7949 16.3034 39.9414 16.2415 40.0977 16.1895C40.2539 16.1309 40.4264 16.0788 40.6152 16.0332L40.4297 16.7559V15.418H41.9922V16.7559L41.8359 16.1113L43.0273 16.3945L42.9785 17H39.6094ZM36.0156 12.0293V10.7793L36.25 11.209L34.9023 10.5645L34.9414 10.1543C35.2279 10.0241 35.5599 9.91341 35.9375 9.82227C36.3151 9.73112 36.7188 9.66602 37.1484 9.62695L37.5195 11.1797L36.0156 12.0293ZM45.0586 16.9414V10.4082L46.6211 10.2227V16.9414H45.0586ZM45.0586 12.0293V10.7793L45.293 11.209L43.9453 10.5645L43.9844 10.1543C44.2708 10.0241 44.6029 9.91341 44.9805 9.82227C45.3581 9.73112 45.7617 9.66602 46.1914 9.62695H46.6211V11.1797L45.0586 12.0293ZM44.0039 17L44.0527 16.4141C44.222 16.3359 44.4043 16.2676 44.5996 16.209C44.8014 16.1439 45.0195 16.0853 45.2539 16.0332L45.0586 16.7559V15.418H46.6211V16.7559L46.4551 16.1113L47.7148 16.3945L47.666 17H44.0039ZM45.6934 8.36719C45.3743 8.36719 45.1204 8.27604 44.9316 8.09375C44.7493 7.91146 44.6582 7.66406 44.6582 7.35156C44.6582 7.03906 44.7493 6.79167 44.9316 6.60938C45.1204 6.42708 45.3743 6.33594 45.6934 6.33594C46.0124 6.33594 46.263 6.42708 46.4453 6.60938C46.6341 6.79167 46.7285 7.03906 46.7285 7.35156C46.7285 7.66406 46.6341 7.91146 46.4453 8.09375C46.263 8.27604 46.0124 8.36719 45.6934 8.36719ZM55.0781 17.1562C53.9062 17.1562 52.9557 16.8828 52.2266 16.3359C52.0898 15.3919 52.0573 14.5879 52.1289 13.9238H52.8418L53.8965 16.375L53.1348 15.6426C53.8379 16.0397 54.5605 16.2383 55.3027 16.2383C55.8822 16.2383 56.3249 16.1081 56.6309 15.8477C56.9434 15.5872 57.0996 15.2194 57.0996 14.7441C57.0996 14.347 56.9792 14.0247 56.7383 13.7773C56.4974 13.5234 56.1068 13.3151 55.5664 13.1523L54.6094 12.8496C52.9622 12.3288 52.1387 11.3978 52.1387 10.0566C52.1387 9.17773 52.4447 8.47786 53.0566 7.95703C53.6686 7.4362 54.4954 7.17578 55.5371 7.17578C56.4681 7.17578 57.3079 7.37109 58.0566 7.76172C58.1738 8.53646 58.2064 9.24284 58.1543 9.88086H57.4023L56.543 7.88867L57.4805 8.68945C56.7188 8.29232 55.9961 8.09375 55.3125 8.09375C54.2513 8.09375 53.7207 8.55924 53.7207 9.49023C53.7207 9.90039 53.8477 10.2357 54.1016 10.4961C54.362 10.7565 54.7786 10.9779 55.3516 11.1602L56.3086 11.4629C57.9167 11.9707 58.7207 12.8854 58.7207 14.207C58.7207 15.112 58.3919 15.8314 57.7344 16.3652C57.0768 16.8926 56.1914 17.1562 55.0781 17.1562ZM62.7441 17.1172C61.429 17.1172 60.7715 16.4499 60.7715 15.1152V10.4082L60.8594 9.71484L61.2207 7.85938H62.334V14.8223C62.334 15.252 62.4121 15.5645 62.5684 15.7598C62.7311 15.9486 62.9915 16.043 63.3496 16.043C63.6426 16.043 64.0169 15.9876 64.4727 15.877L64.4141 16.7168C63.9323 16.9837 63.3757 17.1172 62.7441 17.1172ZM59.541 10.6523L59.6094 9.87109C59.987 9.77995 60.4036 9.72786 60.8594 9.71484H64.4336L64.3555 10.6523H59.541ZM68.75 17.1758C67.6693 17.1758 66.8099 16.834 66.1719 16.1504C65.5339 15.4603 65.2148 14.5358 65.2148 13.377C65.2148 12.2051 65.5371 11.2741 66.1816 10.584C66.8262 9.88737 67.6921 9.53906 68.7793 9.53906C69.86 9.53906 70.7161 9.88411 71.3477 10.5742C71.9857 11.2578 72.3047 12.1823 72.3047 13.3477C72.3047 14.5195 71.9824 15.4505 71.3379 16.1406C70.6999 16.8307 69.8372 17.1758 68.75 17.1758ZM68.916 16.2578C70.0293 16.2578 70.5859 15.3757 70.5859 13.6113C70.5859 12.5957 70.4134 11.8177 70.0684 11.2773C69.7298 10.7305 69.2415 10.457 68.6035 10.457C67.4902 10.457 66.9336 11.3392 66.9336 13.1035C66.9336 14.1191 67.1061 14.9004 67.4512 15.4473C67.7962 15.9876 68.2845 16.2578 68.916 16.2578ZM74.4922 16.9414V10.6914L76.0547 11.1895V16.9414H74.4922ZM73.4961 17L73.5449 16.4141C73.7337 16.3229 73.9225 16.248 74.1113 16.1895C74.3001 16.1309 74.4889 16.0788 74.6777 16.0332L74.4922 16.7461V15.418H76.0547V16.7461L75.8984 16.1211L77.4805 16.3945L77.4316 17H73.4961ZM75.7422 12.1172L75.5469 11.7266C75.8919 10.9779 76.2598 10.4408 76.6504 10.1152C77.041 9.7832 77.4935 9.61719 78.0078 9.61719C78.0924 9.61719 78.1803 9.62044 78.2715 9.62695C78.3691 9.63346 78.4538 9.64974 78.5254 9.67578L78.418 11.0234C78.3138 11.0104 78.1999 11.0007 78.0762 10.9941C77.9525 10.9811 77.8418 10.9746 77.7441 10.9746C77.3079 10.9746 76.9303 11.0658 76.6113 11.248C76.2988 11.4238 76.0091 11.7135 75.7422 12.1172ZM74.4922 12.0293V10.7793L74.7266 11.209L73.3789 10.5645L73.418 10.1543C73.7044 10.0241 74.0365 9.91341 74.4141 9.82227C74.7917 9.73112 75.1953 9.66602 75.625 9.62695L75.9961 11.1797L74.4922 12.0293ZM82.959 17.1562C81.7806 17.1562 80.8724 16.8372 80.2344 16.1992C79.5964 15.5612 79.2773 14.6497 79.2773 13.4648C79.2773 12.2604 79.5898 11.3066 80.2148 10.6035C80.8398 9.89388 81.6829 9.53906 82.7441 9.53906C83.6947 9.53906 84.4271 9.83854 84.9414 10.4375C85.4557 11.0299 85.7129 11.8828 85.7129 12.9961C85.7129 13.0938 85.7096 13.1914 85.7031 13.2891C85.6966 13.3867 85.6868 13.4811 85.6738 13.5723L84.0332 13.2598C84.0332 12.2637 83.9128 11.5443 83.6719 11.1016C83.4375 10.6589 83.0534 10.4375 82.5195 10.4375C81.4779 10.4375 80.957 11.2611 80.957 12.9082C80.957 14.985 81.7871 16.0234 83.4473 16.0234C84.0983 16.0234 84.7786 15.89 85.4883 15.623L85.4199 16.541C85.1139 16.7363 84.7461 16.8893 84.3164 17C83.8932 17.1042 83.4408 17.1562 82.959 17.1562ZM79.9121 13.5723V12.7715H85.5176L85.6738 13.5723H79.9121Z" fill="white"/>
<path d="M14.551 2C2.59595 3.03226 0.579143 15.7634 1.06512 22C4.46697 21.8925 11.9267 20.5161 14.551 15.871C17.1753 11.2258 15.6444 4.68817 14.551 2Z" fill="#00575D"/>
<path d="M14.551 2.64517C7.8445 6.51614 11.7566 9.84947 14.551 11.0323C10.4202 10.1721 2.74174 9.41937 5.07443 13.2903C7.40712 17.1613 -6.22455 28.7742 7.9903 15.871" stroke="white"/>
</svg>
